<?xml version="1.0" encoding="UTF-8" standalone="no"?>
<!DOCTYPE svg PUBLIC "-//W3C//DTD SVG 20010904//EN"
              "http://www.w3.org/TR/2001/REC-SVG-20010904/DTD/svg10.dtd">

<svg xmlns="http://www.w3.org/2000/svg"
     width="7.66667in" height="3.66667in"
     viewBox="0 0 690 330">
  <path id="Path"
        fill="#fff" stroke="#fff" stroke-width="1"
        d="M 120.50,299.62
           C 110.16,310.54 95.41,316.00 76.22,316.00
             57.03,316.00 42.20,310.57 31.72,299.72
             21.24,288.87 16.00,273.48 16.00,253.55
             16.00,253.55 16.00,80.45 16.00,80.45
             16.00,60.53 21.24,45.14 31.72,34.28
             42.20,23.43 57.03,18.00 76.22,18.00
             95.41,18.00 110.16,23.46 120.50,34.38
             130.83,45.29 136.00,60.70 136.00,80.58
             136.00,80.58 136.00,113.52 136.00,113.52
             136.00,113.52 98.00,113.52 98.00,113.52
             98.00,113.52 98.00,82.81 98.00,82.81
             98.00,62.94 90.74,53.00 76.22,53.00
             61.41,53.00 54.00,62.95 54.00,82.83
             54.00,82.83 54.00,251.16 54.00,251.16
             54.00,271.05 61.41,281.00 76.22,281.00
             90.74,281.00 98.00,271.06 98.00,251.19
             98.00,251.19 98.00,220.48 98.00,220.48
             98.00,220.48 136.00,220.48 136.00,220.48
             136.00,220.48 136.00,253.42 136.00,253.42
             136.00,273.31 130.83,288.71 120.50,299.62 Z
           M 254.42,312.00
           C 252.65,307.84 251.47,303.75 250.88,299.73
             250.29,295.73 250.00,290.15 250.00,283.02
             250.00,283.02 250.00,213.88 250.00,213.88
             250.00,204.67 248.07,197.39 244.20,192.03
             240.35,186.68 234.41,184.00 226.39,184.00
             226.39,184.00 205.00,184.00 205.00,184.00
             205.00,184.00 205.00,312.00 205.00,312.00
             205.00,312.00 167.00,312.00 167.00,312.00
             167.00,312.00 167.00,22.00 167.00,22.00
             167.00,22.00 226.39,22.00 226.39,22.00
             248.25,22.00 263.99,27.77 273.59,39.31
             283.20,50.84 288.00,66.08 288.00,85.02
             288.00,85.02 288.00,124.06 288.00,124.06
             288.00,134.12 285.71,142.71 281.14,149.81
             276.58,156.91 270.91,162.23 264.14,165.78
             272.09,169.05 278.05,174.78 282.03,182.95
             286.01,191.12 288.00,200.85 288.00,212.14
             288.00,212.14 288.00,279.02 288.00,279.02
             288.00,284.95 288.44,290.82 289.33,296.62
             290.22,302.42 291.55,307.54 293.33,312.00
             293.33,312.00 254.42,312.00 254.42,312.00 Z
           M 250.00,86.75
           C 250.00,77.57 248.07,70.32 244.20,65.00
             240.35,59.67 234.41,57.00 226.39,57.00
             226.39,57.00 205.00,57.00 205.00,57.00
             205.00,57.00 205.00,152.00 205.00,152.00
             205.00,152.00 226.39,152.00 226.39,152.00
             234.41,152.00 240.35,149.34 244.20,144.02
             248.07,138.68 250.00,131.43 250.00,122.25
             250.00,122.25 250.00,86.75 250.00,86.75 Z
           M 324.00,312.00
           C 324.00,312.00 324.00,22.00 324.00,22.00
             324.00,22.00 419.67,22.00 419.67,22.00
             419.67,22.00 419.67,57.00 419.67,57.00
             419.67,57.00 362.47,57.00 362.47,57.00
             362.47,57.00 362.47,144.00 362.47,144.00
             362.47,144.00 413.00,144.00 413.00,144.00
             413.00,144.00 413.00,180.00 413.00,180.00
             413.00,180.00 362.47,180.00 362.47,180.00
             362.47,180.00 362.47,278.00 362.47,278.00
             362.47,278.00 419.67,278.00 419.67,278.00
             419.67,278.00 419.67,312.00 419.67,312.00
             419.67,312.00 324.00,312.00 324.00,312.00 Z
           M 610.78,312.00
           C 610.78,312.00 563.61,312.00 563.61,312.00
             563.61,312.00 543.59,152.25 543.59,152.25
             543.00,146.91 542.33,140.98 541.58,134.45
             540.84,127.92 540.24,121.77 539.80,115.98
             539.36,110.20 538.99,105.37 538.69,101.52
             538.39,97.66 538.25,95.73 538.25,95.73
             538.25,95.73 537.36,95.73 537.36,95.73
             537.36,95.73 537.21,97.66 536.91,101.52
             536.61,105.37 536.24,110.20 535.80,115.98
             535.36,121.77 534.77,127.92 534.02,134.45
             533.27,140.98 532.61,146.91 532.02,152.25
             532.02,152.25 512.44,312.00 512.44,312.00
             512.44,312.00 465.27,312.00 465.27,312.00
             465.27,312.00 428.33,21.86 428.33,21.86
             428.33,21.86 467.05,21.86 467.05,21.86
             467.05,21.86 485.30,203.86 485.30,203.86
             485.89,209.20 486.41,215.14 486.84,221.67
             487.29,228.20 487.74,234.35 488.19,240.14
             488.63,245.92 489.00,250.74 489.30,254.59
             489.60,258.45 489.75,260.38 489.75,260.38
             489.75,260.38 490.64,260.38 490.64,260.38
             490.64,260.38 490.79,258.38 491.08,254.38
             491.38,250.37 491.75,245.47 492.19,239.69
             492.63,233.91 493.23,227.76 493.97,221.23
             494.71,214.70 495.38,208.91 495.97,203.86
             495.97,203.86 519.11,21.86 519.11,21.86
             519.11,21.86 557.39,21.86 557.39,21.86
             557.39,21.86 580.53,203.86 580.53,203.86
             581.12,209.20 581.79,215.14 582.53,221.67
             583.27,228.20 583.86,234.35 584.30,240.14
             584.74,245.92 585.11,250.74 585.41,254.59
             585.71,258.45 585.86,260.38 585.86,260.38
             585.86,260.38 586.75,260.38 586.75,260.38
             586.75,260.38 586.89,258.38 587.19,254.38
             587.49,250.37 587.86,245.47 588.31,239.69
             588.76,233.91 589.20,227.76 589.64,221.23
             590.09,214.70 590.61,208.91 591.20,203.86
             591.20,203.86 609.45,21.86 609.45,21.86
             609.45,21.86 648.17,21.86 648.17,21.86
             648.17,21.86 610.78,312.00 610.78,312.00 Z" />
</svg>
